<?xml version="1.0" standalone="no"?>
<!DOCTYPE svg PUBLIC "-//W3C//DTD SVG 1.1//EN" "http://www.w3.org/Graphics/SVG/1.1/DTD/svg11.dtd" >
<svg xmlns="http://www.w3.org/2000/svg">
<metadata>
Created by FontForge 20120731 at Fri May 20 10:53:13 2016
 By admin
</metadata>
<defs>
<font id="iconfont" horiz-adv-x="1024" >
  <font-face 
    font-family="iconfont"
    font-weight="500"
    font-stretch="normal"
    units-per-em="1024"
    panose-1="2 0 6 3 0 0 0 0 0 0"
    ascent="896"
    descent="-128"
    x-height="792"
    bbox="0 -125 1081.33 893"
    underline-thickness="50"
    underline-position="-100"
    unicode-range="U+0078-E6AB"
  />
<missing-glyph horiz-adv-x="374" 
d="M34 0v682h272v-682h-272zM68 34h204v614h-204v-614z" />
    <glyph glyph-name=".notdef" horiz-adv-x="374" 
d="M34 0v682h272v-682h-272zM68 34h204v614h-204v-614z" />
    <glyph glyph-name=".null" horiz-adv-x="0" 
 />
    <glyph glyph-name="nonmarkingreturn" horiz-adv-x="341" 
 />
    <glyph glyph-name="x" unicode="x" horiz-adv-x="1001" 
d="M281 543q-27 -1 -53 -1h-83q-18 0 -36.5 -6t-32.5 -18.5t-23 -32t-9 -45.5v-76h912v41q0 16 -0.5 30t-0.5 18q0 13 -5 29t-17 29.5t-31.5 22.5t-49.5 9h-133v-97h-438v97zM955 310v-52q0 -23 0.5 -52t0.5 -58t-10.5 -47.5t-26 -30t-33 -16t-31.5 -4.5q-14 -1 -29.5 -0.5
t-29.5 0.5h-32l-45 128h-439l-44 -128h-29h-34q-20 0 -45 1q-25 0 -41 9.5t-25.5 23t-13.5 29.5t-4 30v167h911zM163 247q-12 0 -21 -8.5t-9 -21.5t9 -21.5t21 -8.5q13 0 22 8.5t9 21.5t-9 21.5t-22 8.5zM316 123q-8 -26 -14 -48q-5 -19 -10.5 -37t-7.5 -25t-3 -15t1 -14.5
t9.5 -10.5t21.5 -4h37h67h81h80h64h36q23 0 34 12t2 38q-5 13 -9.5 30.5t-9.5 34.5q-5 19 -11 39h-368zM336 498v228q0 11 2.5 23t10 21.5t20.5 15.5t34 6h188q31 0 51.5 -14.5t20.5 -52.5v-227h-327z" />
    <glyph glyph-name="uniE675" unicode="&#xe675;" 
d="M463 609v188q2 16 -9 27q-9 10 -23 10t-23 -10l-321 -351q-10 -10 -10 -24q0 -16 10 -24l320 -350q10 -13 23 -13t23 10q11 11 8 27v188q106 0 201.5 -46t160 -127t83.5 -180q39 92 39 193q0 98 -38 187t-102.5 153.5t-154 103t-187.5 38.5zM497 352h-97v-173l-247 270
l247 268v-174q80 1 97 0q64 -2 126 -30.5t107 -72.5t80 -95.5t53 -100t19 -85.5q-56 70 -173 131.5t-212 61.5z" />
    <glyph glyph-name="uniE676" unicode="&#xe676;" 
d="M937 473l-321 351q-9 10 -23 10t-23 -10q-11 -11 -9 -27v-188q-98 0 -187.5 -38.5t-154 -103t-102.5 -153.5t-38 -187q0 -101 39 -193q19 99 83.5 180t159 127t199.5 46v-188q-2 -16 8 -27q10 -10 23 -10q15 0 24 13l319 350q10 10 10 24q4 12 -7 24zM624 179v173h-97
q-96 0 -213.5 -62t-171.5 -132q1 37 19 85.5t53 100.5t80 96t107 73t126 31h97v173l247 -270z" />
    <glyph glyph-name="uniE677" unicode="&#xe677;" 
d="M512 589q15 0 25 -11l338 -337q10 -11 10 -26t-10.5 -25.5t-25.5 -10.5t-25 11l-312 312l-312 -312q-10 -11 -25 -11t-25.5 10.5t-10.5 25.5t10 26l338 337q10 11 25 11z" />
    <glyph glyph-name="uniE678" unicode="&#xe678;" 
d="M512 179q-15 0 -25 11l-338 337q-10 11 -10 26t10.5 25.5t25.5 10.5t25 -11l312 -312l312 312q10 11 25 11t25.5 -10.5t10.5 -25.5t-10 -26l-338 -337q-10 -11 -25 -11z" />
    <glyph glyph-name="uniE679" unicode="&#xe679;" 
d="M745 384q0 -17 -12 -29l-384 -384q-12 -12 -29 -12t-29 12t-12 29t12 29l355 355l-355 355q-12 12 -12 29t12 29t29 12t29 -12l384 -384q12 -12 12 -29z" />
    <glyph glyph-name="uniE67A" unicode="&#xe67a;" 
d="M279 384q0 17 12 29l384 384q12 12 29 12t29 -12t12 -29t-12 -29l-355 -355l355 -355q12 -12 12 -29t-12 -29t-29 -12t-29 12l-384 384q-12 12 -12 29z" />
    <glyph glyph-name="uniE67B" unicode="&#xe67b;" 
d="M875 157v482q0 14 -8.5 23.5t-21.5 9.5h-670q-12 0 -21 -9.5t-9 -23.5v-482h-98v-40q0 -14 8.5 -23.5t21.5 -9.5h870q13 0 21.5 9.5t8.5 23.5v40h-102zM549 143h-74q-7 0 -7 10.5t7 10.5h74q7 0 7 -10.5t-7 -10.5zM813 196h-606v409h606v-409z" />
    <glyph glyph-name="uniE67C" unicode="&#xe67c;" 
d="M627 -69q-8 0 -15 1q-165 25 -341 217q-96 105 -144.5 202t-38.5 164q4 25 20.5 49.5t35 40.5t41 30.5t32.5 19.5l16 8q9 3 17.5 0.5t13.5 -10.5l106 -180q6 -9 2.5 -19.5t-13.5 -14.5q-13 -7 -17 -24q-10 -47 64 -134q64 -76 121 -78q33 -2 56 21q6 6 15.5 7t16.5 -5
l168 -127q16 -11 7 -29q-4 -7 -9.5 -17.5t-22.5 -34t-34.5 -41t-44 -32t-52.5 -14.5zM234 609q-35 -19 -64.5 -45.5t-33.5 -55.5q-8 -50 33 -135.5t138 -191.5q164 -179 312 -202q32 -4 63.5 25.5t54.5 69.5l-136 103q-35 -24 -74 -22q-79 2 -158 95q-90 107 -73 178
q6 23 22 39zM921 320q-9 0 -15.5 6t-7.5 15q-3 23 -8 44q-2 9 3.5 17.5t15.5 10.5t18 -3.5t10 -15.5q5 -24 8 -47q1 -10 -5 -18t-16 -9h-3zM884 463q-16 0 -22 15q-5 14 -11 27q-29 62 -72 115q-100 123 -249 175q-9 3 -13.5 12t-1.5 18.5t12 13.5t19 1q162 -56 270 -190
q47 -58 78 -125q7 -14 13 -29q3 -9 -0.5 -18t-13.5 -13q-4 -2 -9 -2zM775 323q-8 0 -15 6t-8 14q-18 104 -85 186.5t-165 121.5q-9 4 -13 13t0 18.5t13 13t18 0.5q109 -44 184 -136t95 -208q2 -10 -4 -18.5t-16 -9.5q-1 -1 -4 -1zM626 331q-18 0 -23 18q-15 49 -48 90
q-34 42 -80 67q-9 4 -12 13.5t2 18.5t14.5 11.5t17.5 -1.5q55 -30 95 -79q39 -48 57 -107q3 -9 -2 -18t-14 -12q-4 -1 -7 -1z" />
    <glyph glyph-name="uniE67D" unicode="&#xe67d;" 
d="M795.5 112q11.5 0 20 8.5t8.5 20.5t-8.5 20t-20 8t-19.5 -8t-8 -20t8 -20.5t19.5 -8.5zM919 571h-247q-16 0 -28 -12.5t-12 -29.5v-423q0 -17 12 -29.5t28 -12.5h247q17 0 29 12.5t12 29.5v423q0 17 -12 29.5t-29 12.5zM929 106q0 -10 -10 -10h-247q-9 0 -9 10v75h266
v-75zM929 215h-266v314q0 10 9 10h247q10 0 10 -10v-314zM102 667h734v-83h40v120h-812v-543h294v-59h-109v-37h366v37h-33v59h33v37h-513v469z" />
    <glyph glyph-name="uniE67E" unicode="&#xe67e;" 
d="M738 823h-426h-6q-5 0 -15.5 -3.5t-18.5 -9.5t-14.5 -19t-6.5 -31v-763q1 -1 0 -7t2 -15.5t8 -18.5t17.5 -15.5t30.5 -6.5h432q2 0 6 0.5t14.5 3.5t18 8.5t14 18t6.5 29.5v766v6q0 5 -3.5 16t-9 19t-18.5 15t-31 7zM464 792h122v-30h-122v30zM418 792q6 0 10.5 -4.5
t4.5 -10.5t-4.5 -10.5t-10.5 -4.5t-10.5 4.5t-4.5 10.5t4.5 10.5t10.5 4.5zM525 -5q-13 0 -22 9t-9 22t9 22t22 9t21.5 -9t8.5 -22t-8.5 -22t-21.5 -9v0zM740 118h-430v613h430v-613zM740 118z" />
    <glyph glyph-name="uniE67F" unicode="&#xe67f;" 
d="M513 569q-77 0 -131.5 -54.5t-54.5 -131t54.5 -131t131.5 -54.5t131.5 54.5t54.5 131t-54.5 131t-131.5 54.5zM513.5 259q-51.5 0 -88 36.5t-36.5 88t36.5 88t88 36.5t88 -36.5t36.5 -88t-36.5 -88t-88 -36.5zM898 515h-37q-8 0 -11.5 7.5t2.5 13.5l26 26q18 18 18 43.5
t-18 43.5l-99 99q-18 18 -43.5 18t-42.5 -18l-27 -26q-3 -4 -9 -4q-2 0 -5 1q-7 3 -7 12v37q0 25 -18.5 45t-43.5 20h-140q-25 0 -43 -20t-18 -45v-37q0 -9 -8 -12q-2 -1 -5 -1q-5 0 -9 4l-26 26q-18 18 -43.5 18t-43.5 -18l-99 -99q-18 -18 -18 -43.5t18 -43.5l26 -26
q6 -6 3 -13.5t-12 -7.5h-37q-25 0 -44.5 -18.5t-19.5 -43.5v-140q0 -25 19.5 -43t44.5 -18h37q9 0 12 -8t-3 -13l-26 -27q-18 -18 -18 -43t18 -43l99 -99q18 -18 43.5 -18t43.5 18l26 26q4 4 9 4q3 0 5 -1q8 -3 8 -12v-37q0 -25 18 -44.5t43 -19.5h140q25 0 43.5 19.5
t18.5 44.5v37q0 8 7 12q3 1 5 1q6 0 9 -4l27 -26q17 -18 42.5 -18t43.5 18l99 99q18 18 18 43t-18 43l-26 27q-6 6 -2.5 13.5t11.5 7.5h37q26 0 45 18t19 43v140q0 25 -19 43.5t-45 18.5zM901 313h-40q-22 0 -41 -12t-27.5 -33t-4 -43t20.5 -38l26 -26l-99 -99l-26 26
q-22 22 -53 22q-14 0 -28 -6q-21 -8 -33.5 -27t-12.5 -41v-40h-140v40q0 22 -12.5 41t-33.5 27q-13 6 -28 6q-31 0 -52 -22l-26 -26l-100 99l27 26q15 16 19.5 38t-4 43t-27 33t-41.5 12h-39v140h39q23 0 41.5 12.5t27 33.5t4 43t-19.5 37l-27 27l100 99l26 -27
q21 -21 52 -21q15 0 28 6q21 8 33.5 26.5t12.5 41.5v41h140v-41q0 -23 12.5 -41.5t33.5 -26.5q14 -6 28 -6q31 0 53 21l26 27l99 -99l-26 -27q-16 -15 -20.5 -37t4 -43t27.5 -33.5t41 -12.5h40v-140z" />
    <glyph glyph-name="uniE680" unicode="&#xe680;" 
d="M792 -38q-58 0 -98 45v0l-151 154q-56 -23 -117 -23q-88 0 -163 45t-118.5 121.5t-43.5 167.5q0 71 30 138q1 9 7 15q1 2 2.5 6t2.5 6l4 -4q23 13 41 -5l154 -159l88 91l-154 158q-17 18 -6 40l-4 4q2 1 5.5 3t4.5 2v1q8 8 20 9q63 29 130 29q89 0 164 -44.5
t118.5 -121.5t43.5 -168v-4q0 -2 -0.5 -5t-0.5 -4v-1l1 -4q0 -1 -0.5 -2.5t-0.5 -2.5v-3q0 -3 -1 -4h-1q-8 -23 -32 -23t-32 24h-3q2 16 2 30q0 110 -76 187.5t-183 77.5q-31 0 -63 -9l134 -137q1 -1 2 -3t1 -2.5t1.5 -1t1.5 -1.5q10 -10 10 -24.5t-10 -24.5l-136 -141
q-10 -11 -24.5 -11t-24.5 11q-1 1 -2 3l-1 2q-1 0 -2 1l-2 2l-134 138q-9 -34 -9 -67q0 -110 75.5 -187.5t182.5 -77.5q71 0 133 38l49 -51l59 -60l7 -7l69 -71q1 0 2 -1v-2q19 -22 48 -22q26 0 45 19t19 46q0 22 -13 40l2 2q-9 3 -14 9l-167 169q-10 11 -10 25.5t10 24.5
t24.5 10t24.5 -10l166 -170q6 -5 8 -14l3 3q33 -39 33 -89q0 -56 -38.5 -95.5t-92.5 -39.5z" />
    <glyph glyph-name="uniE681" unicode="&#xe681;" 
d="M887 678h-751q-33 0 -56.5 -21.5t-23.5 -52.5v-446q0 -30 23.5 -52t56.5 -22h751q33 0 56.5 22t23.5 52v446q0 31 -23.5 52.5t-56.5 21.5v0zM110 158v436l236 -218l-236 -219v1v0zM148 629h727l-364 -336l-363 336v0zM384 341l127 -118l129 118l225 -208h-705l224 208v0z
M678 376h-1l236 218v-436l-235 218v0zM678 376z" />
    <glyph glyph-name="uniE682" unicode="&#xe682;" 
d="M439 15q-88 0 -163 18t-118.5 49.5t-43.5 68.5v8v79q45 -43 132 -69.5t193 -26.5q56 0 109 8q2 18 6 36q-55 -8 -115 -8q-88 0 -163 18t-118.5 49t-43.5 68v9v79q45 -44 132 -70.5t193 -26.5t193.5 26.5t131.5 70.5v-43h9q14 0 27 -1v327q-20 61 -123 102.5t-238 41.5
t-238 -41.5t-123 -102.5v-560q21 -63 123 -106t238 -42q83 1 157 18q-15 18 -22 33q-64 -12 -135 -12zM439 792q88 0 163 -18t118.5 -49.5t43.5 -68t-43.5 -68t-118.5 -49.5t-163 -18t-163 18t-118.5 49.5t-43.5 68t43.5 68t118.5 49.5t163 18zM114 484v98q45 -44 132 -70.5
t193 -26.5t193.5 26.5t131.5 70.5v-98v-8q0 -37 -43.5 -68t-118.5 -49.5t-163 -18.5t-163 18.5t-118.5 49.5t-43.5 68v8zM764 322q-75 0 -127.5 -53t-52.5 -127.5t52.5 -127.5t127.5 -53t128 53t53 127.5t-53 127.5t-128 53zM764 -3q-60 0 -102 42.5t-42 102t42 102
t102 42.5t102.5 -42.5t42.5 -102t-42.5 -102t-102.5 -42.5zM782 232h-36v-72h-72v-36h72v-73h36v73h73v36h-73v72z" />
    <glyph glyph-name="uniE683" unicode="&#xe683;" 
d="M512 766q74 0 126.5 -49t52.5 -119q0 -41 -20 -78l145 -105q29 19 63 19q46 0 78.5 -30.5t32.5 -73.5t-32.5 -73.5t-78 -30.5t-78 30.5t-32.5 73.5q0 19 7 37l-145 105q-37 -31 -87 -40v-161q49 -11 81 -48t32 -85q0 -56 -42.5 -96t-102.5 -40t-102.5 40t-42.5 96
q0 48 32 85t81 48v161q-50 9 -87 40l-145 -105q7 -18 7 -37q0 -43 -32.5 -73.5t-78 -30.5t-78 30.5t-32.5 73.5t32.5 73.5t78.5 30.5q34 0 63 -19l145 105q-20 37 -20 78q0 70 52.5 119t126.5 49v0zM512 766z" />
    <glyph glyph-name="uniE684" unicode="&#xe684;" horiz-adv-x="1025" 
d="M309 183l-52 11l362 362l60 -60l-362 -362zM718 457l-360 -360l-146 -43l-30 30l45 152l356 356l-43 43l-362 -358q-8 -7 -11 -16l-76 -258q-5 -18 9 -31q9 -10 22 -10q5 0 9 1l259 76q8 3 14 10l363 359zM573 671l227 -227l52 49l-227 227zM911 675l-109 108
q-22 23 -53.5 23t-54.5 -22l-33 -34l217 -217l34 33q22 23 22 54.5t-23 54.5z" />
    <glyph glyph-name="uniE685" unicode="&#xe685;" 
d="M670 398l-147 148l174 174l-114 114h379v-380l-118 118zM583 546l87 -88l174 175l75 -75v233h-233l71 -71zM780 -66h-539q-74 0 -126.5 52.5t-52.5 126.5v541q0 74 52.5 126.5t126.5 52.5h242v-43h-242q-56 0 -96 -40t-40 -96v-541q0 -56 40 -96t96 -40h539q56 0 96 40
t40 96v245h43v-245q0 -74 -52.5 -126.5t-126.5 -52.5zM225 503h185v-43h-185v43zM225 301h571v-43h-571v43zM225 144h571v-43h-571v43z" />
    <glyph glyph-name="uniE686" unicode="&#xe686;" 
d="M790 515l172 172l-146 146l-172 -172l-117 116v-375h375zM569 676l75 -75l172 173l87 -87l-173 -172l71 -71h-232v232zM909 112q0 -56 -40 -95.5t-96 -39.5h-534q-56 0 -95.5 39.5t-39.5 95.5v534q0 56 39.5 95.5t95.5 39.5h241v42h-241q-73 0 -125 -52t-52 -125v-534
q0 -73 52 -125t125 -52h534q74 0 125.5 52t51.5 125v242h-41v-242zM223 497h184v-42h-184v42zM223 297h566v-42h-566v42zM223 142h566v-42h-566v42z" />
    <glyph glyph-name="uniE687" unicode="&#xe687;" 
d="M793 609h-562q-12 0 -20 8t-8 20t8 20t20 8h562q12 0 20 -8t8 -20t-8 -20t-20 -8zM765 46q0 -23 -16.5 -39.5t-39.5 -16.5h-394q-23 0 -39.5 16.5t-16.5 39.5v507h506v-507zM428 750q0 11 8 19.5t20 8.5h112q12 0 20 -8.5t8 -19.5v-28h-168v28zM821 722h-168v56
q0 23 -16.5 39.5t-40.5 16.5h-168q-24 0 -40.5 -16.5t-16.5 -39.5v-56h-168q-24 0 -40.5 -16.5t-16.5 -40.5v-56q0 -23 16.5 -39.5t40.5 -16.5v-507q0 -46 33 -79t79 -33h394q46 0 79 33t33 79v507q24 0 40.5 16.5t16.5 39.5v56q0 24 -16.5 40.5t-40.5 16.5zM512 46
q12 0 20 8.5t8 20.5v337q0 12 -8 20t-20 8t-20 -8t-8 -20v-337q0 -12 8 -20.5t20 -8.5zM371 46q12 0 20.5 8.5t8.5 20.5v337q0 12 -8.5 20t-20 8t-20 -8t-8.5 -20v-337q0 -12 8.5 -20.5t19.5 -8.5zM653 46q11 0 19.5 8.5t8.5 20.5v337q0 12 -8.5 20t-20 8t-20 -8t-8.5 -20
v-337q0 -12 8.5 -20.5t20.5 -8.5z" />
    <glyph glyph-name="uniE688" unicode="&#xe688;" 
d="M911 649h-299q-14 0 -24 9.5t-10 23.5t10 23.5t24 9.5h299q13 0 23 -9.5t10 -23.5t-10 -23.5t-23 -9.5zM911 483h-299q-14 0 -24 9.5t-10 23.5t10 23.5t24 9.5h299q13 0 23 -9.5t10 -23.5t-10 -23.5t-23 -9.5zM911 217h-299q-14 0 -24 9.5t-10 23.5t10 23.5t24 9.5h299
q13 0 23 -9.5t10 -23.5t-10 -23.5t-23 -9.5zM911 51h-299q-14 0 -24 9.5t-10 23.5t10 23.5t24 9.5h299q13 0 23 -9.5t10 -23.5t-10 -23.5t-23 -9.5zM379 416h-199q-41 0 -70.5 29.5t-29.5 70.5v199q0 41 29.5 70.5t70.5 29.5h199q41 0 70.5 -29.5t29.5 -70.5v-199
q0 -41 -29.5 -70.5t-70.5 -29.5zM180 748q-14 0 -23.5 -9.5t-9.5 -23.5v-199q0 -14 9.5 -23.5t23.5 -9.5h199q14 0 23.5 9.5t9.5 23.5v199q0 14 -9.5 23.5t-23.5 9.5h-199zM379 -49h-199q-41 0 -70.5 29.5t-29.5 70.5v199q0 41 29.5 70.5t70.5 29.5h199q41 0 70.5 -29.5
t29.5 -70.5v-199q0 -41 -29.5 -70.5t-70.5 -29.5zM180 283q-14 0 -23.5 -9.5t-9.5 -23.5v-199q0 -14 9.5 -23.5t23.5 -9.5h199q14 0 23.5 9.5t9.5 23.5v199q0 14 -9.5 23.5t-23.5 9.5h-199zM180 283z" />
    <glyph glyph-name="uniE689" unicode="&#xe689;" 
d="M861 79h-437q-17 0 -30 13t-13 30v1q0 18 13 30.5t30 12.5h437q17 0 30 -12.5t13 -30.5v-1q0 -17 -13 -30t-30 -13zM861 340h-437q-17 0 -30 13t-13 30v2q0 17 13 30t30 13h437q17 0 30 -13t13 -30v-2q0 -17 -13 -30t-30 -13zM861 602h-437q-17 0 -30 12.5t-13 30.5v1
q0 17 13 30t30 13h437q17 0 30 -13t13 -30v-1q0 -18 -13 -30.5t-30 -12.5zM207 36q-36 0 -61.5 25.5t-25.5 61.5t25.5 61.5t61.5 25.5t61.5 -25.5t25.5 -61.5t-25.5 -61.5t-61.5 -25.5zM207 297q-36 0 -61.5 25.5t-25.5 61.5t25.5 61.5t61.5 25.5t61.5 -25.5t25.5 -61.5
t-25.5 -61.5t-61.5 -25.5zM207 558q-36 0 -61.5 25.5t-25.5 61.5t25.5 61.5t61.5 25.5t61.5 -25.5t25.5 -61.5t-25.5 -61.5t-61.5 -25.5z" />
    <glyph glyph-name="uniE68A" unicode="&#xe68a;" 
d="M513 -61q-91 0 -174 35.5t-143 95.5t-95 142.5t-35 173.5t35 173.5t95 142.5t143 95.5t174 35.5t174 -35.5t142.5 -95.5t95 -142.5t35.5 -173.5t-35.5 -173.5t-95 -142.5t-142.5 -95.5t-174 -35.5zM513 777q-106 0 -196.5 -52.5t-143 -142.5t-52.5 -196t52.5 -196
t143 -142.5t196.5 -52.5t196 52.5t142.5 142.5t52.5 196t-52.5 196t-142.5 142.5t-196 52.5zM553 386l118 -118q8 -8 8 -20t-8 -20t-19.5 -8t-20.5 8l-118 118l-119 -119q-9 -8 -20.5 -8t-19.5 8.5t-8 20t8 19.5l119 119l-118 119q-9 8 -9 19.5t8.5 19.5t20 8t19.5 -8
l119 -118l120 120q8 8 19.5 8t20 -8.5t8.5 -20t-8 -19.5z" />
    <glyph glyph-name="uniE68B" unicode="&#xe68b;" 
d="M675 413h-127v127q0 15 -10.5 25.5t-25.5 10.5t-26 -10.5t-11 -25.5v-127h-127q-15 0 -25.5 -11t-10.5 -26t10.5 -25.5t25.5 -10.5h127v-127q0 -15 11 -26t26 -11t25.5 11t10.5 26v127h127q15 0 25.5 10.5t10.5 25.5t-10.5 26t-25.5 11zM511 831q-92 0 -176 -36t-145 -97
t-97 -145t-36 -176.5t36 -176.5t97 -144.5t145 -96.5t176.5 -36t176.5 36t144.5 96.5t96.5 144.5t36 176.5t-36 176.5t-96.5 145t-144.5 97t-177 36zM511 -21q-107 0 -198.5 53.5t-145 145t-53.5 199t53.5 199t145 145t199 53.5t199 -53.5t145 -145t53.5 -199t-53.5 -199
t-145 -145t-199.5 -53.5zM511 -21z" />
    <glyph glyph-name="uniE68C" unicode="&#xe68c;" 
d="M499 821q-1 -8 -1 -14q0 6 1 14zM499 821q-1 -8 -1 -14q0 6 1 14zM754 419q11 0 19 8t8 18.5t-8 18.5t-19 8h-1h-191q42 85 44 90l35 72l1 1q5 10 1.5 20t-13.5 15t-20 1.5t-15 -13.5l-79 -159l-78 159q-5 10 -15.5 13.5t-20 -1.5t-13 -15t1.5 -20l1 -1l35 -72
q0 -1 44 -90h-92h-100q-10 0 -18 -8t-8 -18.5t7.5 -18.5t18.5 -8h209v-96h-109h-100q-10 0 -18 -8t-8 -18.5t7.5 -18.5t18.5 -8h209v-67v-100q0 -11 7.5 -19t18.5 -8t18.5 8t7.5 18v99v69h214q11 0 19 8t8 18.5t-8 18.5t-19 8h-1h-213v96h214zM975 375v12q0 93 -36 177.5
t-97.5 146t-146.5 98t-178 36.5h-14q-7 -1 -19.5 -1.5t-20.5 -1.5h-8q-153 -21 -262 -130t-130 -262q-4 -24 -4 -49v-5v-8q0 -93 36.5 -178t97.5 -146.5t146 -97.5t178 -36q11 0 25.5 1t23.5 2l10 1q120 16 217 89q6 6 6 14t-6.5 15.5t-14.5 7.5q-9 0 -14 -7h-1
q-82 -60 -182 -76q-34 -4 -64 -4q-80 0 -155.5 33t-131.5 88.5t-90 132.5t-34 160v19q5 108 61 198t148.5 142t201.5 52q107 0 199 -51t148 -139q64 -100 64 -220v-12l1 -6q0 -3 -1 -11.5t-1.5 -13.5t-0.5 -11v-9l-1 -3q-10 -71 -42 -132v-1q-2 -4 -2 -6q0 -8 7.5 -14
t15.5 -6q14 0 19 13q37 72 48 150q3 24 4 49z" />
    <glyph glyph-name="uniE68D" unicode="&#xe68d;" 
d="M872 -6h-120q-25 0 -42.5 17.5t-17.5 42.5v420q0 25 17.5 42.5t42.5 17.5h120q25 0 42.5 -17.5t17.5 -42.5v-420q0 -25 -17.5 -42.5t-42.5 -17.5zM872 474h-120v-420h120v420zM572 -6h-120q-25 0 -42.5 17.5t-17.5 42.5v660q0 25 17.5 42.5t42.5 17.5h120
q25 0 42.5 -17.5t17.5 -42.5v-660q0 -25 -17.5 -42.5t-42.5 -17.5zM572 714h-120v-660h120v660zM272 -6h-120q-25 0 -42.5 17.5t-17.5 42.5v300q0 25 17.5 42.5t42.5 17.5h120q25 0 42.5 -17.5t17.5 -42.5v-300q0 -25 -17.5 -42.5t-42.5 -17.5zM272 354h-120v-300h120v300z
" />
    <glyph glyph-name="uniE68E" unicode="&#xe68e;" 
d="M575 432v402q109 0 201.5 -54t146.5 -146.5t54 -201.5h-402zM918 343h-2q-7 -103 -62 -188t-144 -134.5t-193 -49.5q-109 0 -201.5 54t-146 146.5t-53.5 201.5q0 104 49 193t134.5 144t187.5 62v1h60v-372h372v-58h-1zM486 343v370q-131 -12 -221.5 -109.5t-90.5 -230.5
q0 -93 46 -172t124.5 -124.5t171.5 -45.5q134 0 231.5 90t108.5 222h-370zM486 343z" />
    <glyph glyph-name="uniE68F" unicode="&#xe68f;" 
d="M992 217h-96v166q0 27 -18.5 45.5t-45.5 18.5h-296v104h88q13 0 22.5 9.5t9.5 22.5v128q0 14 -9.5 23t-22.5 9h-224q-13 0 -22.5 -9t-9.5 -23v-128q0 -13 9.5 -22.5t22.5 -9.5h88v-104h-296q-27 0 -45.5 -18.5t-18.5 -45.5v-166h-96q-13 0 -22.5 -9.5t-9.5 -22.5v-128
q0 -14 9.5 -23t22.5 -9h224q13 0 22.5 9t9.5 23v128q0 13 -9.5 22.5t-22.5 9.5h-80v134q0 27 10.5 37.5t37.5 10.5h264v-182h-88q-13 0 -22.5 -9.5t-9.5 -22.5v-128q0 -14 9.5 -23t22.5 -9h224q13 0 22.5 9t9.5 23v128q0 13 -9.5 22.5t-22.5 9.5h-88v182h264
q27 0 37.5 -10.5t10.5 -37.5v-134h-80q-13 0 -22.5 -9.5t-9.5 -22.5v-128q0 -14 9.5 -23t22.5 -9h224q13 0 22.5 9t9.5 23v128q0 13 -9.5 22.5t-22.5 9.5z" />
    <glyph glyph-name="uniE690" unicode="&#xe690;" 
d="M994 361h-150l-139 132q-1 0 -1 1h-1h-1l-1 1l-1 1h-1h-1q0 1 -1 1h-1q0 1 -1 1h-1h-1h-1q-1 0 -1.5 0.5t-1 0.5t-0.5 -1h-1h-1h-1h-2q-1 -1 -2 -1t-2 -1q-1 0 -1.5 -0.5t-1 -0.5t-0.5 -0.5t-0.5 -1t-1.5 -0.5l-1 -1v0q-1 -1 -1 -1.5t-1 -0.5v-2h-1l-1 -1v-1v-1l-1 -1v-1
v-1l-113 -475l-154 861v1v1q0 1 -0.5 1.5l-0.5 0.5v2q-1 1 -1 1.5t-1 0.5q0 1 -1 2v0q-1 1 -1 1.5t-0.5 1t-1 0.5t-1.5 1q-1 0 -1.5 0.5t-0.5 1t-1 0.5t-1 0.5t-1 0.5h-1l-1 1h-1h-1h-1h-1h-1h-1h-2v0h-2v0h-2h-1q0 -1 -0.5 -1t-1 -0.5t-1.5 -0.5h-1q0 -1 -0.5 -1t-1.5 -1
q-1 0 -1.5 -0.5t-0.5 -1.5q-1 -1 -1.5 -1t-0.5 -0.5t-1 -1.5l-1 -1q0 -1 -0.5 -1.5t-0.5 -1t-1 -1.5v-2v0l-128 -508h-199q-9 0 -15.5 -6.5t-6.5 -15.5t6.5 -15.5t15.5 -6.5h209h1q3 -1 5 -1q17 0 21 17l108 427l155 -866v0v-1v-1q1 -1 1 -2t1 -2q0 -1 1 -1v-1q1 0 1 -1
q1 -1 1 -1.5t0.5 -1t1 -0.5t1.5 -1l1 -1l1 -1h1l1 -1h1l1 -1h1h1h1h1q0 -1 1 -1h1h2q1 0 3 1v0h2h1h2v1l1 1h1q1 1 2 1l1 1h1q0 1 1 1l1 1v1l1 1q0 1 1 1v1h1v2h1v2l1 1v1v0l127 541l118 -112h1q0 -1 1 -1q1 -1 1.5 -1t1 -0.5t1.5 -0.5l1 -1l1 -1h1h1h1h1l1 -1h2v0h159
q9 0 15.5 6.5t6.5 15.5t-6.5 15.5t-15.5 6.5z" />
    <glyph glyph-name="uniE691" unicode="&#xe691;" 
d="M560 212q-30 -34 -67.5 -55.5t-75.5 -21.5q-42 0 -81 24.5t-63.5 74.5t-24.5 110q0 74 38 148.5t94.5 112t109.5 37.5q41 0 77.5 -21.5t63.5 -64.5l16 72h83l-67 -313q-14 -65 -14 -72q0 -12 9.5 -21.5t23.5 -9.5q24 0 64 29q54 37 85 100t31 129q0 78 -40 145.5
t-119 108t-175 40.5q-109 0 -199 -51t-139.5 -146t-49.5 -204q0 -115 49.5 -197.5t143.5 -121.5t208 -39q122 0 204.5 41t123.5 99h84q-23 -49 -81 -99.5t-137.5 -80t-192.5 -29.5q-103 0 -190.5 26.5t-149 80t-92.5 122.5q-39 88 -39 190q0 114 46 217q57 126 161.5 193
t254.5 67q115 0 207 -47t145 -141q45 -81 46 -175q0 -135 -96 -240q-84 -94 -185 -94q-32 0 -52 9.5t-29 27.5q-6 12 -9 40zM334 339q0 -64 30.5 -99.5t69.5 -35.5q26 0 55 15.5t55.5 46.5t43 78t16.5 95q0 63 -31.5 98t-76.5 35q-30 0 -56 -15t-51 -48.5t-40 -81.5t-15 -88
zM334 339z" />
    <glyph glyph-name="uniE692" unicode="&#xe692;" 
d="M511 832h-1v0q-91 0 -174 -35.5t-142.5 -95.5t-95 -143t-35.5 -174t35.5 -173.5t95 -142.5t142.5 -95.5t174 -35.5v0h1q91 0 174 35.5t142.5 95t95 142.5t35.5 174t-35.5 174t-95 143t-142.5 95.5t-174 35.5zM529 564q70 2 138 19q21 -84 23 -181h-161v162zM529 600v193
q36 -10 70.5 -56.5t57.5 -119.5q-63 -15 -128 -17zM493 794v-194q-66 2 -130 17q24 74 58.5 120.5t71.5 56.5zM493 564v-162h-163q2 97 24 181q68 -17 139 -19zM294 402h-195q6 137 93 243q61 -33 127 -53q-23 -89 -25 -190zM294 366q2 -100 25 -189q-66 -20 -127 -54
q-87 106 -93 243h195zM330 366h163v-161q-71 -2 -139 -19q-22 83 -24 180zM493 169v-194q-37 10 -71.5 56.5t-58.5 120.5q64 15 130 17zM529 -25v194q65 -2 128 -17q-23 -73 -57.5 -120t-70.5 -57zM529 205v161h161q-2 -96 -23 -180q-68 17 -138 19zM726 366h196
q-6 -137 -93 -243q-61 34 -128 54q23 89 25 189zM726 402q-2 101 -25 190q67 20 128 54q87 -107 93 -244h-196zM804 673q-54 -29 -112 -47q-33 104 -85 159q114 -28 197 -112zM413 785q-52 -55 -84 -158q-58 17 -112 46q83 84 196 112zM217 96q54 28 112 46q32 -103 84 -158
q-113 28 -196 112zM607 -16q53 55 85 158q58 -17 112 -46q-83 -85 -197 -112z" />
    <glyph glyph-name="uniE693" unicode="&#xe693;" 
d="M512 -93q-52 0 -121.5 37t-131 94t-104.5 134t-43 149v401l40 1q8 0 27 1.5t66 11t88 26.5q97 39 155 82l24 17l24 -17q58 -43 155 -82q41 -17 88 -26.5t66 -11t27 -1.5l40 -1v-401q0 -72 -43 -149t-104.5 -134t-131 -94t-121.5 -37zM193 645v-324q0 -55 36.5 -117
t88 -108.5t105.5 -77.5t89 -31t89 31t105.5 77.5t88 108.5t36.5 117v324q-91 10 -170 42q-81 33 -149 76q-67 -43 -149 -76q-79 -32 -170 -42v0zM491 170l-170 144l52 62l109 -93l207 237l61 -52zM491 170z" />
    <glyph glyph-name="uniE694" unicode="&#xe694;" 
d="M540 -4q-10 -15 -28 -15t-28 15q-5 8 -16 24q-38 56 -62.5 92.5t-68 109.5t-70 127t-47.5 117.5t-21 108.5q0 132 91.5 225t221.5 93t221.5 -93t91.5 -225q0 -45 -21 -108.5t-47.5 -117.5t-70 -127t-68 -109.5t-62.5 -92.5q-11 -16 -16 -24zM512 851q-112 0 -191.5 -81
t-79.5 -195q0 -42 21 -102.5t47 -113t69 -123t66 -105.5t59 -87l9 -14l10 14q35 52 58 87t66 105.5t69 123t47 113t21 102.5q0 114 -79.5 195t-191.5 81zM512 426q-61 0 -103.5 43.5t-42.5 105t42.5 105t103.5 43.5t103.5 -43.5t42.5 -105t-42.5 -105t-103.5 -43.5zM512 681
q-43 0 -73.5 -31t-30.5 -75t30.5 -75t73.5 -31t73.5 31t30.5 75t-30.5 75t-73.5 31zM366 66v-21q-40 -13 -62 -30.5t-22 -33.5q0 -26 68.5 -47.5t161.5 -21.5t161.5 21.5t68.5 47.5q0 16 -22 33.5t-62 30.5v21q146 -33 146 -85q0 -44 -85.5 -75t-206.5 -31t-206.5 31
t-85.5 75q0 52 146 85z" />
    <glyph glyph-name="uniE695" unicode="&#xe695;" 
d="M823 808h-57q-12 0 -22.5 -7.5t-10.5 -18.5t10.5 -21t22.5 -10h57q25 0 40.5 -15.5t15.5 -40.5v-649q0 -26 -15.5 -41.5t-40.5 -15.5h-607q-27 0 -49 16.5t-22 40.5v649q0 25 15.5 40.5t40.5 15.5h71q22 0 22 31q0 26 -22 26h-71q-57 0 -85 -31.5t-28 -82.5v-642
q0 -54 31.5 -86.5t87.5 -32.5h610q58 0 88.5 30t30.5 89v642q0 50 -30 82t-83 32zM272 553.5q0 -11.5 8.5 -20.5t20.5 -9h423q12 0 20.5 9t8.5 20.5t-8.5 20t-20.5 8.5h-423q-12 0 -20.5 -8.5t-8.5 -20zM723 426h-422q-12 0 -20.5 -8.5t-8.5 -20t8.5 -20.5t20.5 -9h423
q12 0 20.5 9t8.5 20q-1 13 -9.5 21t-20.5 8zM723 257h-422q-12 0 -20.5 -8.5t-8.5 -20.5t8.5 -20.5t20.5 -8.5h423q12 0 20.5 8.5t8.5 20.5q-1 12 -9.5 20.5t-20.5 8.5zM415 737h197q17 0 29.5 14.5t12.5 34.5t-13 34.5t-31 14.5h-195q-18 0 -30.5 -14.5t-12.5 -34.5
t12.5 -34.5t30.5 -14.5z" />
    <glyph glyph-name="uniE697" unicode="&#xe697;" horiz-adv-x="1164" 
d="M433 428v65q0 12 -9.5 21.5t-21 9.5t-21 -9.5t-9.5 -21.5v-65q0 -11 9.5 -21t21 -10t21 10t9.5 21zM996 497q-34 146 -152.5 241.5t-272.5 95.5q-152 0 -269 -95.5t-152 -241.5q-40 -14 -64 -53.5t-24 -88.5q0 -56 32 -98t79 -51h31q-12 29 -19 49.5t-13.5 56t-6.5 74.5
q0 90 35 170.5t92 135.5t130.5 87t148.5 32q78 0 151.5 -29.5t131 -82.5t92.5 -134t35 -175q0 -107 -48.5 -202t-127.5 -151q-21 43 -65 43q-30 0 -51.5 -21t-21.5 -52q0 -32 20.5 -52.5t52 -20.5t52.5 20.5t21 52.5v7q52 35 93 85t64 107q46 9 78.5 51t32.5 98
q3 48 -21.5 87.5t-63.5 54.5zM774 428v65q0 12 -9.5 21.5t-21 9.5t-21 -9.5t-9.5 -21.5v-65q0 -11 9.5 -21t21 -10t21 10t9.5 21zM740 240q4 4 4 8q0 12 -12 12q-4 0 -7 -4v0q-29 -35 -69.5 -54t-84.5 -19q-86 0 -149 69q-3 6 -4 7t-4 1q-11 0 -11 -12q0 -8 4 -8
q37 -42 75 -59t93 -17q52 0 91 18t74 58z" />
    <glyph glyph-name="uniE698" unicode="&#xe698;" 
d="M872.5 751.5q-86.5 86.5 -209 86.5t-209 -86.5t-86.5 -209.5q0 -48 15 -93l-321 -326v-136l49 -51l132 1l67 65v41l32 -1l71 65l3 22l19 1l49 50l1 22l20 2l57 60q49 -18 102 -18q122 0 208.5 87t86.5 209.5t-86.5 209zM476 263l-50 -7l-2 -50l-16 -16l-46 -2l-7 -51
l-36 -33l-71 1v-77l-30 -30h-81l-4 3l286 287l-43 44l-253 -254v20l287 291q3 -4 6 -9q16 -24 37 -45q21 -23 51 -43zM829.5 376.5q-68.5 -68.5 -165.5 -68.5t-166 68v1h-1q-4 5 -7 9l-1 1q-11 14 -23 29q-37 57 -37 126q0 97 69 165.5t166 68.5t165.5 -68.5t68.5 -165.5
t-68.5 -165.5zM798 666q-7 9 -18 19t-41.5 24t-63.5 14q-64 0 -128 -50l-28 -22l252 -247l21 21q29 29 43 72q30 90 -37 169zM778 518q-4 -12 -11 -24l-153 150q32 18 61 18q21 0 39.5 -9t25 -15t10.5 -10l1 -1q44 -53 27 -109z" />
    <glyph glyph-name="uniE699" unicode="&#xe699;" 
d="M850 834h-676q-46 0 -79 -35t-33 -82v-670q0 -47 33 -80t78 -33h671q47 0 82.5 33.5t35.5 79.5v675q0 46 -33 79t-79 33zM906 46q0 -22 -19 -39t-43 -17h-671q-23 0 -39.5 16.5t-16.5 39.5v671q1 24 18 42.5t39 18.5h676q23 0 39.5 -16.5t16.5 -39.5v-676zM737 272h-450
q-12 0 -20 -8.5t-8 -20t8 -20t20 -8.5h450q12 0 20 8.5t8 20t-8 20t-20 8.5zM737 440h-450q-12 0 -20 -8t-8 -19.5t8 -20t20 -8.5h450q12 0 20 8.5t8 20t-8 19.5t-20 8zM737 609h-450q-12 0 -20 -8.5t-8 -20t8 -19.5t20 -8h450q12 0 20 8t8 19.5t-8 20t-20 8.5z" />
    <glyph glyph-name="uniE69A" unicode="&#xe69a;" 
d="M855 -66h-686v371h58v-315h572v315h58v-371h-2zM626 48h-58v201h-114v-201h-58v257h228v-257h2zM512 363q-48 0 -81 33.5t-33 81.5t33 81t81 33t81 -33t33 -81t-33 -81.5t-81 -33.5zM512 534q-24 0 -40 -16t-16 -40t17 -41t41 -17t41 17t17 41q0 23 -18 39.5t-42 16.5z
M921 315l-409 435l-409 -435l-41 39l450 480l450 -480z" />
    <glyph glyph-name="uniE69B" unicode="&#xe69b;" 
d="M899 73l-154 153q67 94 67 209q0 98 -48 181t-131 131t-180.5 48t-180.5 -48t-131.5 -131t-48.5 -181t48.5 -181t131.5 -131t180 -48q114 0 208 67l154 -154q9 -9 24 -10t24 7l42 43q8 9 6 22t-11 23zM152 435q0 124 88 212t212 88t212 -88t88 -212t-88 -212t-212 -88
t-212 88t-88 212z" />
    <glyph glyph-name="uniE69C" unicode="&#xe69c;" 
d="M554 787q-18 19 -45 19h-316q-11 0 -19 -8t-8 -18v-792q0 -10 8 -18t19 -8h633q10 0 18 8t8 18v475q0 26 -19 45zM799 15h-580v738h289q5 -1 9 -4l279 -278q2 -4 3 -9v-447v0zM826 806h-159q-11 0 -13 -5.5t6 -13.5l173 -173q8 -8 13.5 -6t5.5 13v159q0 10 -8 18t-18 8z
" />
    <glyph glyph-name="uniE69D" unicode="&#xe69d;" 
d="M103 511h26v223q0 14 10 24t24 10h254q16 0 26 -12l118 -127h298q14 0 23.5 -10t9.5 -24v-84h26q14 0 24 -10t10 -24v-3v-2l-55 -433q-2 -16 -15 -25q-10 -9 -23 -9h-696q-13 0 -24 9q-14 9 -15 25l-54 434q-2 14 6.5 25t22.5 13h4zM197 511h628v50h-279q-14 0 -25 11
l-119 128h-205v-189zM879 443h-737l45 -367h647z" />
    <glyph glyph-name="uniE69E" unicode="&#xe69e;" 
d="M166 354v2l2 2l417 416l1 2h2v1q58 55 138 54.5t136 -57.5q57 -57 57.5 -137.5t-55.5 -137.5v-1l-2 -2l-308 -308q-4 -4 -7 -6q-41 -35 -96 -33.5t-94.5 40.5t-41 94t34.5 97q2 3 5 6l2 1l238 238q12 13 29.5 13t29.5 -12.5t12 -30t-12 -29.5l-238 -238q-16 -17 -16 -40
t16 -39.5t39.5 -16.5t39.5 16l308 308q33 33 33 79.5t-33 79t-79.5 32.5t-79.5 -33l-406 -406q-50 -49 -50 -119t49.5 -119t119 -49t119.5 49l337 337q12 12 29.5 12t30 -12t12.5 -29.5t-13 -29.5l-347 -347q0 -1 -1.5 -2t-2.5 -1q-74 -65 -173.5 -61.5t-169.5 74
t-73.5 169.5t61.5 174z" />
    <glyph glyph-name="uniE69F" unicode="&#xe69f;" 
d="M513 748q110 0 203.5 -47.5t148 -129t54.5 -177t-54.5 -177t-148 -128.5t-203.5 -47q-119 0 -219 56q-10 6 -21 6q-10 0 -19 -5l-89 -44l21 107q3 19 -9 34q-70 90 -70 199q0 95 54 176.5t148 129t204 47.5zM513 790q-122 0 -225.5 -53t-163.5 -144t-60 -198
q0 -124 80 -225l-37 -192l166 83q110 -62 240 -62q122 0 225.5 53t163.5 144t60 198.5t-60 198.5t-163.5 144t-225.5 53zM705.5 427q-17.5 0 -30 -12.5t-12.5 -30.5t12.5 -30.5t30 -12.5t30 12.5t12.5 30.5t-12.5 30.5t-30 12.5zM513 427q-18 0 -30.5 -12.5t-12.5 -30.5
t12.5 -30.5t30.5 -12.5t30.5 12.5t12.5 30.5t-12.5 30.5t-30.5 12.5zM320.5 427q-17.5 0 -30 -12.5t-12.5 -30.5t12.5 -30.5t30 -12.5t30 12.5t12.5 30.5t-12.5 30.5t-30 12.5z" />
    <glyph glyph-name="uniE6A0" unicode="&#xe6a0;" 
d="M571 415q-15 3 -25 15.5t-10 27.5v195q0 72 51.5 123.5t123.5 51.5h66q72 0 123.5 -51.5t51.5 -123.5v-66q0 -72 -51.5 -123.5t-123.5 -51.5h-189q-9 0 -17 3zM703 768q-44 0 -75.5 -31.5t-31.5 -76.5v-188h188q45 0 76.5 31.5t31.5 75.5v81q0 45 -31.5 76.5t-76.5 31.5
h-81zM588 356h189q72 0 123.5 -51t51.5 -124v-66q0 -72 -51.5 -123.5t-123.5 -51.5h-66q-72 0 -123.5 51.5t-51.5 123.5v195q0 15 10 27.5t25 15.5q8 3 17 3zM784 0q45 0 76.5 31.5t31.5 76.5v81q0 44 -31.5 75.5t-76.5 31.5h-188v-188q0 -45 31.5 -76.5t75.5 -31.5h81z
M436 412h-189q-72 0 -123.5 51t-51.5 124v66q0 72 51.5 123.5t123.5 51.5h66q72 0 123.5 -51.5t51.5 -123.5v-195q0 -15 -10 -27.5t-25 -15.5q-8 -3 -17 -3zM240 768q-45 0 -76.5 -31.5t-31.5 -76.5v-81q0 -44 31.5 -75.5t76.5 -31.5h188v188q0 45 -31.5 76.5t-75.5 31.5
h-81zM453 353q15 -3 25 -15.5t10 -27.5v-195q0 -72 -51.5 -123.5t-123.5 -51.5h-66q-72 0 -123.5 51.5t-51.5 123.5v66q0 73 51.5 124t123.5 51h189q9 0 17 -3zM321 0q44 0 75.5 31.5t31.5 76.5v188h-188q-45 0 -76.5 -31.5t-31.5 -75.5v-81q0 -45 31.5 -76.5t76.5 -31.5h81
z" />
    <glyph glyph-name="uniE6A1" unicode="&#xe6a1;" 
d="M668 334q55 38 86.5 97t31.5 128q0 114 -80.5 194.5t-194 80.5t-194 -80.5t-80.5 -194.5q0 -69 31.5 -128t86.5 -97q-122 -47 -198 -156t-76 -244h77v1q0 134 89.5 234t221.5 115q49 5 88 0q2 -1 4 -1q129 -18 215.5 -117t86.5 -231v-1h78q0 135 -75.5 243.5
t-197.5 156.5zM512 353q-85 0 -145.5 60.5t-60.5 145.5t60.5 145.5t145.5 60.5t145 -60.5t60 -145.5t-60 -145.5t-145 -60.5z" />
    <glyph glyph-name="uniE6A2" unicode="&#xe6a2;" horiz-adv-x="1118" 
d="M639 675q-25 70 -84 114.5t-132 44.5q-95 0 -162.5 -72t-67.5 -172q0 -61 27 -114t72 -86q-102 -43 -165.5 -140t-63.5 -217h64q0 119 75.5 208.5t185.5 103.5h5t12.5 0.5t16.5 0.5h20q11 0 20 -1h3q29 -5 56 -15q-22 43 -27 93q-34 -17 -71 -17q-72 0 -122.5 54
t-50.5 130t50.5 130t122.5 54q58 0 103 -36t62 -93q24 19 51 30zM814 290q46 33 72.5 85.5t26.5 114.5q0 101 -67.5 173t-163.5 72q-95 0 -162.5 -71.5t-67.5 -172.5q0 -61 27 -114t73 -86q-103 -43 -166.5 -140t-63.5 -217h64q0 120 75.5 209t185.5 103h5q5 1 12.5 1
t17 0.5t20 0t19.5 -1.5h4q108 -16 180.5 -104t72.5 -206h66q-1 119 -65 215.5t-165 138.5zM682 308q-72 0 -122.5 53.5t-50.5 130t50.5 130t122.5 53.5t122.5 -53.5t50.5 -130t-50.5 -130t-122.5 -53.5z" />
    <glyph glyph-name="uniE6A3" unicode="&#xe6a3;" 
d="M512 832q-185 0 -316.5 -131.5t-131.5 -316.5t131.5 -316.5t316.5 -131.5t316.5 131.5t131.5 316.5t-131.5 316.5t-316.5 131.5zM512 0q-159 0 -271.5 112.5t-112.5 271.5t112.5 271.5t271.5 112.5t271.5 -112.5t112.5 -271.5t-112.5 -271.5t-271.5 -112.5zM511 620
q-61 0 -104 -43t-43 -104q0 -12 8.5 -21t21 -9t21 9t8.5 21q0 37 26 62.5t63 25.5t63 -25.5t26 -62.5q0 -61 -60 -86q-26 -11 -42 -31t-16 -42v-24q0 -10 9 -18.5t20.5 -8.5t20.5 8.5t9 18.5v19q0 8 7.5 15.5t14.5 10.5l8 3q39 18 63.5 54t24.5 81q-1 61 -44.5 104
t-104.5 43zM512 219h-1q-10 0 -17 -7.5t-7 -17.5v-22q0 -10 7 -17t17 -7h1q10 0 17.5 7t7.5 17v22q0 11 -7.5 18t-17.5 7z" />
    <glyph glyph-name="uniE6A4" unicode="&#xe6a4;" 
d="M512 832q-185 0 -316.5 -131.5t-131.5 -316.5t131.5 -316.5t316.5 -131.5t316.5 131.5t131.5 316.5t-131.5 316.5t-316.5 131.5zM512 0q-159 0 -271.5 112.5t-112.5 271.5t112.5 271.5t271.5 112.5t271.5 -112.5t112.5 -271.5t-112.5 -271.5t-271.5 -112.5zM670 588
l-158 -159l-158 159l-46 -46l159 -158l-159 -158l46 -46l158 159l158 -159l46 46l-159 158l159 158z" />
    <glyph glyph-name="uniE6A5" unicode="&#xe6a5;" 
d="M512 833q-91 0 -173.5 -35t-142.5 -95t-95.5 -143t-35.5 -174t35.5 -174t95.5 -143t142.5 -95.5t173.5 -35.5t174 35.5t143 95.5t95.5 143t35.5 174t-35.5 174t-95.5 143t-143 95t-174 35zM512 -6q-106 0 -196 52.5t-142.5 143t-52.5 196.5t52.5 196.5t142.5 142.5
t196.5 52t196.5 -52t142.5 -142.5t52.5 -196.5t-52.5 -196.5t-142.5 -143t-197 -52.5zM459 185l-210 203l52 54l154 -148l265 292l56 -50zM459 185z" />
    <glyph glyph-name="uniE6A6" unicode="&#xe6a6;" 
d="M943 366q-16 39 -45.5 68.5t-68.5 45.5l-20 8q-31 71 -91 121q-43 35 -95 54q-53 20 -111 20q-57 0 -110 -20q-52 -18 -94 -53q-62 -51 -94 -124q-48 -18 -85 -54q-64 -63 -64 -152q0 -46 20 -88q18 -40 51 -70q50 -45 116 -57q6 -2 13 -2v0h1q19 0 32 13t13 32t-13 32
t-32 13h-1v2q-47 10 -78 45t-31 80q0 51 37.5 87.5t91.5 41.5q17 79 80.5 131t146.5 52q84 0 147.5 -53t80.5 -133h5q51 0 87.5 -36.5t36.5 -87.5q0 -47 -31 -82.5t-77 -40.5v-1q-19 0 -32 -13.5t-13 -32t13 -32t32 -13.5h1q4 0 7 1q31 3 60 15q39 17 68.5 46.5t45.5 68.5
q17 40 17 84t-17 84z" />
    <glyph glyph-name="uniE6A7" unicode="&#xe6a7;" 
d="M64 364q0 69 42.5 124.5t106.5 73.5q36 91 118 148t183 57q102 0 182.5 -56.5t116.5 -148.5q66 -19 107.5 -74t41.5 -124q0 -87 -61 -147.5t-149 -60.5q-17 0 -29.5 12.5t-12.5 28.5q0 19 12.5 30.5t29.5 11.5q53 0 90 36.5t37 88.5q0 58 -44 93l-8 7q-2 3 -9 7
q-1 2 -5 3t-5 2h-3q-1 2 -3.5 3t-3.5 2h-2q-1 0 -3.5 1.5t-4.5 1.5q-5 0 -5 2h-7q-4 0 -7 3h-20q-5 18 -5 22q-2 0 -2 4q-1 3 -2.5 8t-2.5 7q0 1 -1 2.5t-1 2.5q-3 5 -8 15v5q-1 2 -4.5 7t-5.5 7q-31 52 -85.5 83.5t-117.5 31.5q-65 0 -119.5 -31t-85.5 -84l-7 -14
q0 -1 -1 -2t-1 -2l-1 -1l-7 -15v-5l-7 -15v-4q-6 -17 -6 -22h-22q-2 -3 -7 -3h-4q-3 -2 -4 -2q-1 -1 -2 0q-1 0 -3.5 -1.5t-3.5 -1.5h-5q-1 -1 -3.5 -2t-3.5 -3h-3q-1 -1 -3.5 -2t-3.5 -3h-2q-1 0 -8 -7q-2 -1 -10 -7q-41 -33 -41 -93q0 -52 36.5 -88.5t87.5 -36.5
q20 0 32 -11.5t12 -30.5q0 -16 -12.5 -28.5t-31.5 -12.5q-86 0 -148 61t-62 147v0zM346 224q0 14 9 30l128 139q12 12 31 12q17 0 32 -12l125 -139q12 -13 12 -30t-12.5 -29t-31.5 -12q-15 0 -29 14l-54 59v-210q0 -19 -12 -30.5t-30 -11.5t-29.5 11.5t-11.5 30.5v210
l-54 -59q-14 -14 -32 -14q-16 0 -28.5 12.5t-12.5 28.5z" />
    <glyph glyph-name="uniE6A8" unicode="&#xe6a8;" 
d="M943 451q-16 39 -45.5 68.5t-68.5 46.5q-10 4 -20 7q-31 72 -91 121q-43 35 -95 54q-53 20 -111 20q-57 0 -110 -19q-52 -19 -94 -54q-62 -50 -94 -124q-48 -18 -85 -53q-64 -64 -64 -152q0 -47 20 -89q18 -40 51 -70q50 -44 116 -57q6 -2 13 -2v0h1q19 0 32 13.5t13 32
t-13 32t-32 13.5h-1v1q-47 11 -78 46t-31 80q0 50 37.5 87t91.5 41q17 79 80.5 131t146.5 52q84 0 147.5 -52.5t80.5 -133.5q3 1 5 1q51 0 87.5 -36.5t36.5 -88.5q0 -47 -31 -82t-77 -41v-1q-19 0 -32 -13t-13 -32t13 -32t32 -14h1q4 1 7 1q31 4 60 16q39 16 68.5 46
t45.5 68q17 40 17 84t-17 84zM353 145l122 -122q14 -14 33 -13q19 -1 32 13l122 122q13 12 13 30t-13 30q-13 13 -30.5 13t-30.5 -13l-48 -48v204q0 18 -13 30.5t-30 12.5q-18 0 -30.5 -12.5t-12.5 -30.5v-207v-1l-53 52q-12 13 -30 13t-31 -13q-12 -12 -12 -30t12 -30z" />
    <glyph glyph-name="uniE6A9" unicode="&#xe6a9;" 
d="M788 725l-276 -277l-276 277q-11 11 -27 11t-27 -11.5t-11 -27t11 -26.5l276 -276l-276 -277q-11 -11 -11 -26.5t11 -27t27 -11.5t27 11l276 277l276 -277q11 -11 27 -11t27 11.5t11 27t-11 26.5l-276 277l276 276q11 11 11 26.5t-11 27t-27 11.5t-27 -11z" />
    <glyph glyph-name="uniE6AA" unicode="&#xe6aa;" 
d="M73 386q-12 11 -12 27.5t11.5 28t28 12t28.5 -11.5l264 -257l500 492q11 12 27.5 11.5t28 -12t11.5 -28t-12 -27.5l-527 -520q-11 -11 -27.5 -11t-27.5 11z" />
    <glyph glyph-name="uniE6AB" unicode="&#xe6ab;" 
d="M190 706h70v-70h-70v70zM386 832h-322v-322h126v-56h70v56h126v70h56v56h-56v196zM316 580h-182v182h182v-182zM190 132h70v-70h-70v70zM764 706h70v-70h-70v70zM512 390v-76h70v70h56v70h-56v56h-70v-56v-64zM512 134v-72h70v72v54h56v70h-58h-68v-60v-64zM582 62h56
v-56h-56v56zM442 6v-70h74h66v70h-66h-74zM708 188h-70v-54v-72h70h56v70h-56v56zM764 -64h72h64h60v70h-60h-66v56h-70v-56v-70zM960 384v70h-60h-66v-70h66h60zM890 132h70v-70h-70v70zM442 580h70v-70h-70v70zM764 454v56h196v322h-322v-70h-58h-68v-56h68h58v-70h-56
v-56h56v-70h70v-56h56zM708 762h182v-182h-182v182zM708 314h56v-56h-56v56zM834 188h-70v-56h72h54v66v60h70v56h-60h-66v-52v-74zM442 706h70v-70h-70v70zM260 384h56v-70h-56v70zM442 454h-54h-72v-70h70v-70h56v76v64zM386 62v126h56v70h-54h-198v68v58h-58h-68v-70h70
v-56h-70v-322h322v70h56v56h-56zM316 6h-182v182h182v-182zM442 314h70v-56h-70v56zM638 384h70v-70h-70v70zM764 384h70v-70h-70v70z" />
  </font>
</defs>
</svg>
